<?xml version="1.0" standalone="no"?>
<!DOCTYPE svg PUBLIC "-//W3C//DTD SVG 20010904//EN"
 "http://www.w3.org/TR/2001/REC-SVG-20010904/DTD/svg10.dtd">
<svg version="1.0" xmlns="http://www.w3.org/2000/svg"
 width="1024.000000pt" height="1536.000000pt" viewBox="0 0 1024.000000 1536.000000"
 preserveAspectRatio="xMidYMid meet">

<g transform="translate(0.000000,1536.000000) scale(0.100000,-0.100000)"
fill="#000000" stroke="none">
<path d="M3490 11360 c-393 -27 -703 -160 -945 -404 -155 -156 -245 -303 -315
-515 -92 -278 -99 -425 -99 -2061 0 -1119 7 -1512 29 -1630 6 -30 11 -62 11
-70 2 -31 49 -210 72 -271 35 -92 92 -203 148 -286 42 -62 259 -298 259 -281
0 3 14 -7 31 -23 18 -16 34 -28 36 -26 2 3 16 -7 32 -22 63 -58 407 -202 447
-187 7 3 16 0 20 -5 3 -6 15 -9 25 -6 10 3 22 1 25 -5 4 -5 19 -7 35 -4 15 3
31 1 34 -5 4 -5 21 -10 38 -10 447 -4 3482 -1 3531 4 198 20 421 102 593 218
72 49 227 179 220 185 -2 2 19 27 45 55 134 139 249 376 298 620 39 191 41
298 38 1899 -4 1398 -6 1555 -21 1650 -54 334 -169 572 -376 779 -115 115
-212 184 -363 256 -186 89 -350 128 -608 145 -166 11 -3078 11 -3240 0z m2547
-512 c152 -73 221 -231 179 -410 -27 -113 -94 -238 -218 -402 l-112 -150 -38
45 c-65 73 -189 249 -230 325 -104 193 -113 343 -29 476 35 56 108 112 171
133 70 23 211 15 277 -17z m-79 -1048 c20 -38 23 -56 19 -120 -8 -146 -117
-308 -265 -395 -40 -23 -94 -48 -120 -55 -26 -6 -56 -16 -68 -22 -12 -5 -61
-7 -120 -3 -126 8 -496 9 -549 1 -234 -33 -419 -109 -525 -215 -74 -74 -90
-112 -90 -207 1 -99 33 -136 181 -207 79 -39 173 -73 307 -112 217 -62 293
-91 363 -136 93 -59 136 -131 127 -213 -15 -133 -126 -230 -483 -426 -385
-211 -473 -267 -571 -365 -103 -103 -139 -229 -94 -333 42 -98 164 -181 360
-245 189 -62 218 -68 405 -92 222 -28 356 -59 442 -101 145 -71 289 -243 310
-367 l6 -37 -69 6 c-38 2 -91 5 -119 5 -27 0 -61 4 -75 9 -14 5 -63 12 -110
15 -145 9 -337 33 -530 66 -102 18 -192 33 -200 34 -8 1 -22 5 -31 9 -9 4 -27
8 -40 10 -13 2 -31 6 -39 10 -8 3 -58 19 -110 35 -114 35 -212 74 -260 105
-19 13 -64 41 -100 64 -85 54 -163 131 -215 212 -100 156 -106 308 -21 487 59
122 151 219 303 319 61 41 115 74 119 74 4 0 21 10 38 23 17 13 159 87 315
166 156 78 299 153 316 167 18 13 36 24 40 24 16 0 118 85 128 107 9 19 6 28
-14 49 -13 14 -35 32 -49 39 -44 23 -210 64 -360 89 -187 31 -370 78 -425 110
-61 36 -113 101 -132 166 -31 101 -16 344 26 435 5 11 19 46 30 78 51 141 123
249 239 358 145 136 330 222 567 265 135 24 502 25 693 1 182 -23 263 -22 312
3 49 25 90 83 90 128 0 45 19 38 48 -18z m24 -2857 c46 -49 179 -229 198 -268
8 -16 19 -37 25 -45 7 -8 18 -30 25 -48 12 -31 11 -36 -21 -80 -48 -69 -62
-84 -196 -219 -67 -68 -127 -123 -132 -123 -6 0 -65 73 -132 163 -67 89 -128
167 -136 174 -8 6 -27 28 -42 48 l-27 36 188 191 c103 105 188 194 188 199 0
20 28 7 62 -28z"/>
<path d="M5812 10730 c-72 -29 -142 -126 -142 -197 0 -69 53 -149 123 -184 61
-32 153 -24 204 18 60 48 78 87 78 169 0 60 -4 76 -28 112 -47 72 -161 111
-235 82z"/>
</g>
</svg>
